<?xml version="1.0" encoding="UTF-8" standalone="no"?>
<!-- Created with Inkscape (http://www.inkscape.org/) -->

<svg
   xmlns:dc="http://purl.org/dc/elements/1.1/"
   xmlns:cc="http://creativecommons.org/ns#"
   xmlns:rdf="http://www.w3.org/1999/02/22-rdf-syntax-ns#"
   xmlns:svg="http://www.w3.org/2000/svg"
   xmlns="http://www.w3.org/2000/svg"
   xmlns:sodipodi="http://sodipodi.sourceforge.net/DTD/sodipodi-0.dtd"
   xmlns:inkscape="http://www.inkscape.org/namespaces/inkscape"
   width="170"
   height="100"
   viewBox="0 0 170 100"
   id="svg2"
   version="1.1"
   inkscape:version="0.91 r13725"
   sodipodi:docname="hint.svg">
  <defs
     id="defs4" />
  <sodipodi:namedview
     id="base"
     pagecolor="#ffffff"
     bordercolor="#666666"
     borderopacity="1.0"
     inkscape:pageopacity="0.0"
     inkscape:pageshadow="2"
     inkscape:zoom="1"
     inkscape:cx="41.629509"
     inkscape:cy="103.03448"
     inkscape:document-units="px"
     inkscape:current-layer="layer1"
     showgrid="false"
     units="px"
     fit-margin-top="0"
     fit-margin-left="0"
     fit-margin-right="0"
     fit-margin-bottom="0"
     inkscape:window-width="1080"
     inkscape:window-height="813"
     inkscape:window-x="84"
     inkscape:window-y="53"
     inkscape:window-maximized="0" />
  <metadata
     id="metadata7">
    <rdf:RDF>
      <cc:Work
         rdf:about="">
        <dc:format>image/svg+xml</dc:format>
        <dc:type
           rdf:resource="http://purl.org/dc/dcmitype/StillImage" />
        <dc:title />
      </cc:Work>
    </rdf:RDF>
  </metadata>
  <g
     inkscape:label="Layer 1"
     inkscape:groupmode="layer"
     id="layer1"
     transform="translate(-74.446031,-823.29022)">
    <path
       style="fill:none;fill-rule:evenodd;stroke:#a0a0a0;stroke-width:0.578;stroke-linecap:butt;stroke-linejoin:miter;stroke-opacity:1;stroke-miterlimit:4;stroke-dasharray:none"
       d="m 99.065146,867.26221 c 1.727994,18.31801 15.679304,34.68432 47.088544,37.07473"
       id="path3344"
       inkscape:connector-curvature="0"
       sodipodi:nodetypes="cc" />
    <path
       style="fill:none;fill-rule:evenodd;stroke:#a0a0a0;stroke-width:0.578;stroke-linecap:butt;stroke-linejoin:miter;stroke-opacity:1;stroke-miterlimit:4;stroke-dasharray:none"
       d="m 145.84939,904.35602 c -7.36247,-3.90631 -17.43615,-11.15782 -24.93473,-19.91557"
       id="path3346"
       inkscape:connector-curvature="0"
       sodipodi:nodetypes="cc" />
    <path
       style="fill:none;fill-rule:evenodd;stroke:#a0a0a0;stroke-width:0.578;stroke-linecap:butt;stroke-linejoin:miter;stroke-opacity:1;stroke-miterlimit:4;stroke-dasharray:none"
       d="m 146.00579,904.24855 c -11.59005,3.30024 -19.84977,5.28515 -29.85974,7.04375"
       id="path3348"
       inkscape:connector-curvature="0"
       sodipodi:nodetypes="cc" />
    <g
       style="font-style:normal;font-weight:normal;font-size:40px;line-height:125%;font-family:sans-serif;letter-spacing:0px;word-spacing:0px;fill:#c8c8c8;fill-opacity:1;stroke:none;stroke-width:0.578;stroke-linecap:butt;stroke-linejoin:miter;stroke-opacity:1;stroke-miterlimit:4;stroke-dasharray:none"
       id="text3350"
       transform="translate(2e-6,-58.381332)">
      <path
         d="m 131.76642,911.38 -0.4675,2.695 c 2.53,-0.3025 5.8025,-0.99 7.8925,-1.925 4.51,-2.0075 5.5,-5.1975 5.5275,-9.2125 0,-2.2825 -0.385,-4.29 -0.715,-5.225 l -2.7225,0.275 c 0.7425,1.7875 1.155,4.0975 1.155,5.665 0,3.3825 -1.0725,5.17 -3.1075,6.0225 -0.9625,-3.7125 -3.3,-9.2675 -4.8125,-11.935 l -2.915,0.2475 c 1.98,2.915 4.84,9.3225 5.7475,12.32 -1.43,0.495 -3.74,0.88 -5.5825,1.0725 z"
         style="font-style:normal;font-variant:normal;font-weight:normal;font-stretch:normal;font-size:27.5px;font-family:'Myriad Hebrew';-inkscape-font-specification:'Myriad Hebrew';fill:#c8c8c8;fill-opacity:1;stroke-width:0.578;stroke-miterlimit:4;stroke-dasharray:none"
         id="path3399"
         inkscape:connector-curvature="0" />
      <path
         d="m 117.1429,912.8925 c 0.6325,-0.0825 2.365,-0.0825 3.5475,-0.0825 l 8.965,0 0.4675,-2.5025 -2.0075,0 c 0.055,-0.4675 0.11,-1.76 0.11,-2.3375 l 0,-4.5375 c 0,-3.7675 -0.44,-5.5825 -4.3725,-5.5825 l -2.1725,0 c -1.76,0 -2.97,0 -3.52,-0.11 l -0.495,2.4475 c 0.4125,0.11 1.4575,0.165 3.0525,0.165 l 2.3925,0 c 2.6125,0 2.9425,1.1275 2.9975,4.07 0.055,1.4025 0.0275,4.015 0.0275,5.885 l -4.18,0 c -1.54,0 -3.52,0 -4.345,0.1375 l -0.4675,2.4475 z"
         style="font-style:normal;font-variant:normal;font-weight:normal;font-stretch:normal;font-size:27.5px;font-family:'Myriad Hebrew';-inkscape-font-specification:'Myriad Hebrew';fill:#c8c8c8;fill-opacity:1;stroke-width:0.578;stroke-miterlimit:4;stroke-dasharray:none"
         id="path3401"
         inkscape:connector-curvature="0" />
      <path
         d="m 112.45883,912.81 2.1175,0 0,-9.295 c 0,-4.7025 -0.77,-5.665 -4.785,-5.665 l -1.705,0 c -1.87,0 -3.2725,0 -3.8225,-0.11 l -0.4675,2.4475 c 0.385,0.11 1.43,0.165 3.0525,0.165 l 2.7225,0 c 2.585,0 2.8875,1.21 2.8875,3.9325 l 0,8.525 z"
         style="font-style:normal;font-variant:normal;font-weight:normal;font-stretch:normal;font-size:27.5px;font-family:'Myriad Hebrew';-inkscape-font-specification:'Myriad Hebrew';fill:#c8c8c8;fill-opacity:1;stroke-width:0.578;stroke-miterlimit:4;stroke-dasharray:none"
         id="path3403"
         inkscape:connector-curvature="0" />
      <path
         d="m 99.673965,907.09 c 1.347495,-2.0075 2.172495,-3.9325 2.172495,-5.665 0,-2.035 -0.9075,-2.86 -3.519995,-3.4375 -0.6875,-0.165 -1.2375,-0.33 -1.6225,-0.4675 l -0.4675,2.42 c 0.4675,0.1925 1.0175,0.3575 1.6775,0.55 1.265,0.3575 1.7875,0.66 1.7875,1.5675 0,1.1 -0.605,2.4475 -1.7325,4.2075 l 1.705,0.825 z"
         style="font-style:normal;font-variant:normal;font-weight:normal;font-stretch:normal;font-size:27.5px;font-family:'Myriad Hebrew';-inkscape-font-specification:'Myriad Hebrew';fill:#c8c8c8;fill-opacity:1;stroke-width:0.578;stroke-miterlimit:4;stroke-dasharray:none"
         id="path3405"
         inkscape:connector-curvature="0" />
      <path
         d="m 79.516458,912.92 c 0.6325,-0.0825 1.6225,-0.11 2.7225,-0.11 l 2.1725,0 0.385,-2.475 c 0.0275,-1.925 -0.275,-8.2225 -0.4125,-9.9825 l 4.84,0 c 2.5575,0 2.86,1.21 2.86,3.9325 l 0,8.525 2.145,0 0,-9.295 c 0,-4.7025 -0.77,-5.665 -4.8125,-5.665 l -4.51,0 c -1.6775,0 -3.465,0.055 -4.3175,-0.11 l -0.495,2.42 c 0.44,0.165 1.595,0.1925 2.09,0.1925 l 0.0825,0 c 0.1925,1.76 0.4125,7.2875 0.44,9.955 l -0.4125,0 c -1.4575,0 -1.8425,0.055 -2.255,0.1375 l -0.5225,2.475 z"
         style="font-style:normal;font-variant:normal;font-weight:normal;font-stretch:normal;font-size:27.5px;font-family:'Myriad Hebrew';-inkscape-font-specification:'Myriad Hebrew';fill:#c8c8c8;fill-opacity:1;stroke-width:0.578;stroke-miterlimit:4;stroke-dasharray:none"
         id="path3407"
         inkscape:connector-curvature="0" />
    </g>
    <g
       style="font-style:normal;font-weight:normal;font-size:40px;line-height:125%;font-family:sans-serif;letter-spacing:0px;word-spacing:0px;fill:#c8c8c8;fill-opacity:1;stroke:none;stroke-width:0.578;stroke-linecap:butt;stroke-linejoin:miter;stroke-opacity:1;stroke-miterlimit:4;stroke-dasharray:none"
       id="text3354"
       transform="translate(2e-6,-58.381332)">
      <path
         d="m 150.2408,914.00985 7.7,-19.9375 -1.87,0 -7.6725,19.9375 1.8425,0 z"
         style="font-style:normal;font-variant:normal;font-weight:normal;font-stretch:normal;font-size:27.5px;font-family:'Myriad Pro';-inkscape-font-specification:'Myriad Pro';fill:#c8c8c8;fill-opacity:1;stroke-width:0.578;stroke-miterlimit:4;stroke-dasharray:none"
         id="path3382"
         inkscape:connector-curvature="0" />
      <path
         d="m 170.58392,906.69485 c 0.0275,-0.2475 0.0825,-0.6325 0.0825,-1.1275 0,-2.4475 -1.155,-6.27 -5.5,-6.27 -3.8775,0 -6.2425,3.1625 -6.2425,7.1775 0,4.015 2.4475,6.71 6.545,6.71 2.1175,0 3.575,-0.44 4.4275,-0.825 l -0.4125,-1.7325 c -0.9075,0.385 -1.9525,0.6875 -3.685,0.6875 -2.42,0 -4.51,-1.3475 -4.565,-4.62 l 9.35,0 z m -9.3225,-1.7325 c 0.1925,-1.6775 1.265,-3.9325 3.7125,-3.9325 2.7225,0 3.3825,2.3925 3.355,3.9325 l -7.0675,0 z"
         style="font-style:normal;font-variant:normal;font-weight:normal;font-stretch:normal;font-size:27.5px;font-family:'Myriad Pro';-inkscape-font-specification:'Myriad Pro';fill:#c8c8c8;fill-opacity:1;stroke-width:0.578;stroke-miterlimit:4;stroke-dasharray:none"
         id="path3384"
         inkscape:connector-curvature="0" />
      <path
         d="m 173.63642,912.90985 2.42,0 0,-8.0025 c 0,-0.4125 0.055,-0.825 0.165,-1.1275 0.4125,-1.3475 1.65,-2.475 3.245,-2.475 2.2825,0 3.08,1.7875 3.08,3.9325 l 0,7.6725 2.42,0 0,-7.9475 c 0,-4.565 -2.86,-5.665 -4.7025,-5.665 -2.2,0 -3.74,1.2375 -4.4,2.5025 l -0.055,0 -0.1375,-2.2 -2.145,0 c 0.0825,1.1 0.11,2.2275 0.11,3.6025 l 0,9.7075 z"
         style="font-style:normal;font-variant:normal;font-weight:normal;font-stretch:normal;font-size:27.5px;font-family:'Myriad Pro';-inkscape-font-specification:'Myriad Pro';fill:#c8c8c8;fill-opacity:1;stroke-width:0.578;stroke-miterlimit:4;stroke-dasharray:none"
         id="path3386"
         inkscape:connector-curvature="0" />
      <path
         d="m 198.24033,899.59985 -0.11,2.0075 -0.055,0 c -0.5775,-1.1 -1.8425,-2.31 -4.1525,-2.31 -3.0525,0 -5.995,2.5575 -5.995,7.0675 0,3.685 2.365,6.49 5.665,6.49 2.0625,0 3.4925,-0.99 4.235,-2.2275 l 0.055,0 0,1.485 c 0,3.355 -1.815,4.6475 -4.29,4.6475 -1.65,0 -3.025,-0.495 -3.905,-1.045 l -0.605,1.8425 c 1.0725,0.715 2.8325,1.1 4.4275,1.1 1.6775,0 3.5475,-0.385 4.84,-1.595 1.2925,-1.155 1.8975,-3.025 1.8975,-6.0775 l 0,-7.7275 c 0,-1.6225 0.055,-2.695 0.11,-3.6575 l -2.1175,0 z m -0.385,7.645 c 0,0.4125 -0.055,0.88 -0.1925,1.2925 -0.5225,1.54 -1.87,2.475 -3.355,2.475 -2.6125,0 -3.9325,-2.1725 -3.9325,-4.785 0,-3.08 1.65,-5.0325 3.96,-5.0325 1.76,0 2.9425,1.155 3.3825,2.5575 0.11,0.33 0.1375,0.6875 0.1375,1.1 l 0,2.3925 z"
         style="font-style:normal;font-variant:normal;font-weight:normal;font-stretch:normal;font-size:27.5px;font-family:'Myriad Pro';-inkscape-font-specification:'Myriad Pro';fill:#c8c8c8;fill-opacity:1;stroke-width:0.578;stroke-miterlimit:4;stroke-dasharray:none"
         id="path3388"
         inkscape:connector-curvature="0" />
      <path
         d="m 204.25166,912.90985 2.42,0 0,-19.525 -2.42,0 0,19.525 z"
         style="font-style:normal;font-variant:normal;font-weight:normal;font-stretch:normal;font-size:27.5px;font-family:'Myriad Pro';-inkscape-font-specification:'Myriad Pro';fill:#c8c8c8;fill-opacity:1;stroke-width:0.578;stroke-miterlimit:4;stroke-dasharray:none"
         id="path3390"
         inkscape:connector-curvature="0" />
      <path
         d="m 213.17068,912.90985 0,-13.31 -2.42,0 0,13.31 2.42,0 z m -1.21,-18.5625 c -0.88,0 -1.5125,0.66 -1.5125,1.5125 0,0.825 0.605,1.485 1.4575,1.485 0.9625,0 1.5675,-0.66 1.54,-1.485 0,-0.8525 -0.5775,-1.5125 -1.485,-1.5125 z"
         style="font-style:normal;font-variant:normal;font-weight:normal;font-stretch:normal;font-size:27.5px;font-family:'Myriad Pro';-inkscape-font-specification:'Myriad Pro';fill:#c8c8c8;fill-opacity:1;stroke-width:0.578;stroke-miterlimit:4;stroke-dasharray:none"
         id="path3392"
         inkscape:connector-curvature="0" />
      <path
         d="m 216.26099,912.27735 c 0.935,0.55 2.2825,0.9075 3.74,0.9075 3.1625,0 4.9775,-1.65 4.9775,-3.9875 0,-1.98 -1.1825,-3.135 -3.4925,-4.015 -1.7325,-0.66 -2.53,-1.155 -2.53,-2.255 0,-0.99 0.7975,-1.815 2.2275,-1.815 1.2375,0 2.2,0.44 2.7225,0.77 l 0.605,-1.76 c -0.7425,-0.44 -1.925,-0.825 -3.2725,-0.825 -2.86,0 -4.5925,1.76 -4.5925,3.905 0,1.595 1.1275,2.915 3.52,3.7675 1.7875,0.66 2.475,1.2925 2.475,2.4475 0,1.1 -0.825,1.98 -2.585,1.98 -1.21,0 -2.475,-0.495 -3.19,-0.9625 l -0.605,1.8425 z"
         style="font-style:normal;font-variant:normal;font-weight:normal;font-stretch:normal;font-size:27.5px;font-family:'Myriad Pro';-inkscape-font-specification:'Myriad Pro';fill:#c8c8c8;fill-opacity:1;stroke-width:0.578;stroke-miterlimit:4;stroke-dasharray:none"
         id="path3394"
         inkscape:connector-curvature="0" />
      <path
         d="m 228.0456,912.90985 2.42,0 0,-8.03 c 0,-0.4675 0.0275,-0.825 0.165,-1.155 0.44,-1.32 1.6775,-2.42 3.245,-2.42 2.2825,0 3.08,1.815 3.08,3.96 l 0,7.645 2.42,0 0,-7.92 c 0,-4.5925 -2.86,-5.6925 -4.6475,-5.6925 -0.9075,0 -1.76,0.275 -2.475,0.6875 -0.7425,0.4125 -1.3475,1.0175 -1.7325,1.705 l -0.055,0 0,-8.305 -2.42,0 0,19.525 z"
         style="font-style:normal;font-variant:normal;font-weight:normal;font-stretch:normal;font-size:27.5px;font-family:'Myriad Pro';-inkscape-font-specification:'Myriad Pro';fill:#c8c8c8;fill-opacity:1;stroke-width:0.578;stroke-miterlimit:4;stroke-dasharray:none"
         id="path3396"
         inkscape:connector-curvature="0" />
    </g>
  </g>
</svg>
