<?xml version="1.0" encoding="UTF-8" standalone="no"?>
<!-- Created with Inkscape (http://www.inkscape.org/) -->

<svg
   xmlns:dc="http://purl.org/dc/elements/1.1/"
   xmlns:cc="http://creativecommons.org/ns#"
   xmlns:rdf="http://www.w3.org/1999/02/22-rdf-syntax-ns#"
   xmlns:svg="http://www.w3.org/2000/svg"
   xmlns="http://www.w3.org/2000/svg"
   xmlns:sodipodi="http://sodipodi.sourceforge.net/DTD/sodipodi-0.dtd"
   xmlns:inkscape="http://www.inkscape.org/namespaces/inkscape"
   width="200"
   height="150"
   id="svg2"
   version="1.1"
   inkscape:version="0.48.5 r10040"
   sodipodi:docname="milon.svg">
  <defs
     id="defs4" />
  <sodipodi:namedview
     id="base"
     pagecolor="#ffffff"
     bordercolor="#666666"
     borderopacity="1.0"
     inkscape:pageopacity="0.0"
     inkscape:pageshadow="2"
     inkscape:zoom="1"
     inkscape:cx="242.22319"
     inkscape:cy="144.90822"
     inkscape:document-units="px"
     inkscape:current-layer="layer1"
     showgrid="false"
     inkscape:window-width="1096"
     inkscape:window-height="817"
     inkscape:window-x="98"
     inkscape:window-y="77"
     inkscape:window-maximized="0"
     fit-margin-top="20"
     fit-margin-left="20"
     fit-margin-right="20"
     fit-margin-bottom="20"
     inkscape:snap-global="true"
     showguides="true"
     inkscape:guide-bbox="true" />
  <metadata
     id="metadata7">
    <rdf:RDF>
      <cc:Work
         rdf:about="">
        <dc:format>image/svg+xml</dc:format>
        <dc:type
           rdf:resource="http://purl.org/dc/dcmitype/StillImage" />
        <dc:title />
      </cc:Work>
    </rdf:RDF>
  </metadata>
  <g
     inkscape:label="Layer 1"
     inkscape:groupmode="layer"
     id="layer1"
     transform="translate(-196.87017,-369.79303)">
    <g
       style="font-size:40px;font-style:normal;font-weight:normal;text-align:end;line-height:62.00000048%;letter-spacing:0px;word-spacing:0px;text-anchor:end;fill:#000000;fill-opacity:1;stroke:none;font-family:Sans;-inkscape-font-specification:Myriad Hebrew"
       id="text2985"
       transform="matrix(0.51396754,0,0,0.51396754,97.408853,243.56692)">
      <path
         d="m 485.11967,409.50504 11.232,0 c 2.592,-13.82399 5.616,-31.24801 7.92,-40.896 2.16,-9.79199 7.77602,-25.632 23.76,-25.632 16.84798,0 19.152,17.71201 19.152,35.856 0,5.75999 0,11.664 -0.144,17.712 l -15.12,0 c -7.91999,0 -14.688,0 -17.712,0.576 l -2.448,12.816 c 3.024,-0.288 10.51201,-0.432 16.272,-0.432 l 28.368,0 c 0.432,-2.016 2.016,-11.52001 2.016,-12.816 l 0,-18.432 c 0,-27.79198 -5.47202,-48.384 -27.936,-48.384 -15.98398,0 -24.624,11.376 -27.936,20.16 -1.296,-11.08799 -8.20801,-18.43201 -19.728,-20.304 l -2.592,13.392 c 9.07199,2.15999 14.832,7.77601 12.816,22.176 -1.584,10.65598 -5.04,29.37601 -7.92,44.208"
         style="letter-spacing:-5px"
         id="path4447"
         inkscape:connector-curvature="0" />
      <path
         d="m 464.21992,379.55304 c 7.05599,-10.51199 11.376,-20.59201 11.376,-29.664 0,-10.65599 -4.75201,-14.97601 -18.432,-18 -3.6,-0.864 -6.48,-1.72801 -8.496,-2.448 l -2.448,12.672 c 2.448,1.00799 5.328,1.872 8.784,2.88 6.62399,1.87199 9.36,3.456 9.36,8.208 0,5.75999 -3.16801,12.816 -9.072,22.032 l 8.928,4.32"
         style="letter-spacing:-3px"
         id="path4449"
         inkscape:connector-curvature="0" />
      <path
         d="m 392.93167,410.80104 c 22.75198,-5.04 48.24,-27.07204 48.24,-59.472 0,-12.81599 -3.45601,-20.16 -18.144,-20.16 l -27.792,0 c 0,0 0.48434,-15.76042 -1.63515,-26.79326 -2.30138,-11.97962 -10.14035,-19.26368 -11.83291,-21.13838 -4.00363,6.35148 -7.33835,11.34272 -7.33835,11.34272 3.60431,3.22119 8.07625,8.68902 9.1502,18.28718 0.84752,7.57451 0.69448,16.80772 0.69448,16.80772 l -0.12627,14.59802 34.272,0 c 7.63199,0 11.232,1.728 11.232,10.8 0,20.30398 -14.97602,35.28 -34.128,41.04 l -2.592,14.688"
         style="letter-spacing:-7px"
         id="path4451"
         inkscape:connector-curvature="0"
         sodipodi:nodetypes="csscsccsccsscc" />
      <path
         d="m 367.30892,409.50504 11.232,0 0,-47.088 c 0,-21.88798 -5.18402,-27.21601 -21.312,-30.672 -5.18399,-0.864 -8.064,-1.58401 -9.936,-2.304 l -2.448,12.672 c 2.016,0.86399 4.75201,1.44 9.792,2.736 11.23199,2.73599 12.672,7.20001 12.672,19.584 l 0,45.072"
         style="letter-spacing:-7px;word-spacing:0px"
         id="path4453"
         inkscape:connector-curvature="0" />
      <path
         d="m 340.65282,450.53756 9.95849,-1.08057 -9.08054,-87.97703 c -2.17331,-21.05612 -4.75201,-26.06401 -20.304,-29.664 -6.19199,-1.296 -9.072,-2.16001 -10.944,-2.88 l -2.448,12.528 c 2.016,1.00799 4.60801,1.728 9.792,3.024 11.23199,2.73599 11.35789,7.12512 12.672,19.584"
         style="letter-spacing:-5px"
         id="path4455"
         inkscape:connector-curvature="0"
         sodipodi:nodetypes="ccsccccc" />
      <path
         d="m 495.06892,498.78504 11.232,0 0,-41.184 -11.232,0 0,41.184 m 53.136,0 11.088,0 0,-48.816 c 0,-23.61598 -4.60802,-29.52 -25.056,-29.52 l -19.728,0 c -9.79199,0 -16.992,0 -19.872,-0.576 l -2.448,12.816 c 2.016,0.576 8.06401,0.864 16.56,0.864 l 24.48,0 c 13.53599,0 14.976,6.33601 14.976,22.32 l 0,42.912"
         style="letter-spacing:-12px"
         id="path4457"
         inkscape:connector-curvature="0" />
      <path
         d="m 419.33467,499.21704 c 3.312,-0.432 12.38401,-0.432 19.584,-0.432 l 44.928,0 c 0.432,-2.016 1.872,-10.65601 1.872,-12.24 l 0,-29.376 c 0.144,-25.05598 -10.94402,-31.96801 -32.544,-34.848 -12.09599,-1.728 -20.016,-3.024 -22.32,-3.6 -3.024,8.20799 -9.504,19.29601 -9.504,28.224 0,10.51199 5.47202,18 21.456,20.016 l 2.88,-12.384 c -10.51199,-1.728 -13.968,-5.18401 -13.968,-10.368 0,-3.312 1.728,-7.34401 4.032,-11.808 3.744,0.576 9.50401,1.44 15.984,2.592 17.85598,3.02399 22.752,9.07201 22.896,24.912 l 0,25.776 -30.96,0 c -8.78399,0.144 -18.432,0.144 -21.888,0.72 l -2.448,12.816"
         style="letter-spacing:-7px"
         id="path4459"
         inkscape:connector-curvature="0" />
      <path
         d="m 346.65992,499.79304 c 4.896,-0.432 13.82401,-1.58401 22.896,-3.168 22.46398,-4.176 43.2,-16.12804 43.056,-51.408 0,-10.65599 -1.872,-20.16001 -3.456,-25.344 l -13.824,1.152 c 2.592,6.91199 4.896,17.56801 4.896,27.072 0,24.47997 -10.80002,32.112 -28.656,36 -7.05599,1.58399 -12.528,2.016 -15.696,2.304 -0.864,-4.752 -2.448,-14.97601 -2.736,-16.416 24.33598,-4.608 28.368,-16.99202 28.368,-30.528 -0.144,-7.056 -1.584,-14.97601 -3.024,-19.728 l -13.536,1.296 c 2.16,6.33599 3.888,14.544 3.888,20.304 0,10.36799 -2.26944,16.753 -16.66943,20.065 -3.45383,-26.54413 -4.13251,-37.23366 -6.90828,-62.66047 l -10.40927,3.24016 c 11.75214,97.41841 8.78698,78.81133 11.81098,97.81931"
         style="letter-spacing:-10px"
         id="path4461"
         inkscape:connector-curvature="0"
         sodipodi:nodetypes="cccccsccccccscccc" />
      <path
         d="m 314.96517,498.78504 11.232,0 0,-47.088 c 0,-21.88798 -5.18402,-27.21601 -21.312,-30.672 -5.18399,-0.864 -8.064,-1.584 -9.936,-2.304 l -2.448,12.672 c 2.016,0.864 4.75201,1.44 9.792,2.736 11.23199,2.73599 12.672,7.20001 12.672,19.584 l 0,45.072"
         style="letter-spacing:-5px"
         id="path4463"
         inkscape:connector-curvature="0" />
      <path
         d="m 232.42217,499.79304 c 4.608,-0.432 13.10401,-1.15201 21.312,-2.88 15.83999,-3.312 36.288,-14.83203 36.288,-45.36 0.144,-18.43199 -8.35202,-32.544 -26.64,-32.544 -4.89599,0 -8.784,0.576 -13.248,2.304 l -2.448,13.392 c 3.6,-1.44 7.77601,-2.592 13.104,-2.592 10.94399,0.144 18,7.92001 18,21.744 0,16.41598 -9.21602,27.792 -25.2,30.528 -5.90399,1.008 -9.648,1.44 -12.096,1.584 -3.6,-25.63198 -7.488,-48.96002 -11.088,-66.24 l -13.536,1.296 c 6.19199,22.75197 11.23201,53.13602 15.552,78.768"
         style="font-size:144px;font-variant:normal;font-stretch:normal;line-height:62.00000048%;font-family:Myriad Hebrew;-inkscape-font-specification:Myriad Hebrew"
         id="path4465"
         inkscape:connector-curvature="0" />
    </g>
  </g>
</svg>
